<svg xmlns="http://www.w3.org/2000/svg" version="1.1" viewBox="7.17 7.16 85.67 85.67">
 <path d="m14.016 72.492-6.7539 18.238c-0.21094 0.57422-0.070313 1.2148 0.35938 1.6484 0.43359 0.42969 1.0742 0.57031 1.6484 0.35938l18.242-6.7539h-0.003907c0.125-0.046875 0.21875-0.15234 0.24609-0.28125 0.03125-0.12891-0.007812-0.26562-0.10547-0.35938l-12.992-12.992c-0.09375-0.097656-0.23047-0.13672-0.35938-0.10547-0.12891 0.027344-0.23828 0.12109-0.28125 0.24609z"/>
 <path d="m15.078 70.559 48.895-48.895c0.30469-0.30469 0.85938-0.24609 1.1055 0l13.258 13.258c0.30469 0.30469 0.30469 0.80078 0 1.1055l-48.895 48.895c-0.30469 0.30469-0.85938 0.24609-1.1055 0l-13.258-13.258c-0.30469-0.30469-0.30469-0.80078 0-1.1055z"/>
 <path d="m90.551 12.766-3.3164-3.3164c-3.0508-3.0508-7.9961-3.0508-11.047 0l-10.559 10.559c-0.30469 0.30469-0.30469 0.80078 0 1.1055l13.258 13.258c0.30469 0.30469 0.80078 0.30469 1.1055 0l10.559-10.559c1.4648-1.4648 2.2891-3.4531 2.2891-5.5234 0-2.0742-0.82422-4.0586-2.2891-5.5234z"/>
</svg>