<svg xmlns="http://www.w3.org/2000/svg" xmlns:xlink="http://www.w3.org/1999/xlink" version="1.1" x="0px" y="0px" style="enable-background:new 0 0 100 100;" xml:space="preserve" viewBox="17.8 6.16 64.41 87.69"><style type="text/css">
	.st0{fill-rule:evenodd;clip-rule:evenodd;}
</style><path class="st0" d="M64.378,15.621h10.595c3.981,0,7.233,3.259,7.233,7.233v63.758c0,3.981-3.26,7.233-7.233,7.233H25.027  c-3.98,0-7.232-3.259-7.232-7.233V22.854c0-3.981,3.259-7.233,7.232-7.233h10.594c0-3.377,1.48-2.776,5.938-2.776  c2.021-8.919,14.859-8.919,16.88,0C62.899,12.844,64.378,12.243,64.378,15.621L64.378,15.621z M34.479,73.122H65.52  c2.528,0,2.528-3.84,0-3.84H34.479C31.952,69.282,31.952,73.122,34.479,73.122L34.479,73.122z M34.479,59.473H65.52  c2.528,0,2.528-3.84,0-3.84H34.479C31.952,55.633,31.952,59.473,34.479,59.473L34.479,59.473z M34.479,45.824H65.52  c2.528,0,2.528-3.84,0-3.84H34.479C31.952,41.984,31.952,45.824,34.479,45.824L34.479,45.824z M35.622,19.461H25.027  c-1.882,0-3.393,1.541-3.393,3.393v63.758c0,1.875,1.537,3.393,3.393,3.393h49.945c1.881,0,3.393-1.542,3.393-3.393V22.854  c0-1.875-1.537-3.393-3.393-3.393H64.378c0,2.459,0.575,5.641-1.92,5.641H37.542C35.047,25.102,35.622,21.92,35.622,19.461  L35.622,19.461z M43.266,16.684h-3.804v4.578h21.077v-4.578c-2.512,0-5.724,0.584-5.724-1.92c0-4.276-5.194-6.429-8.219-3.404  c-0.871,0.871-1.41,2.075-1.41,3.404C45.186,15.824,44.326,16.684,43.266,16.684z"/></svg>