<svg xmlns="http://www.w3.org/2000/svg" xmlns:xlink="http://www.w3.org/1999/xlink" version="1.1" x="0px" y="0px" enable-background="new 0 0 64 64" xml:space="preserve" viewBox="12 4 40 55"><g><g><path d="M49,11h-5v2v2c0,1.65-1.35,3-3,3H23c-1.65,0-3-1.35-3-3v-2v-2h-5c-1.65,0-3,1.35-3,3v42c0,1.65,1.35,3,3,3h34    c1.65,0,3-1.35,3-3V14C52,12.35,50.65,11,49,11z"/><path d="M23,16h18c0.55,0,1-0.45,1-1v-2v-2V9c0-0.55-0.45-1-1-1h-3c0-2.21-1.79-4-4-4h-4c-2.21,0-4,1.79-4,4h-3    c-0.55,0-1,0.45-1,1v2v2v2C22,15.55,22.45,16,23,16z"/></g></g></svg>