<svg xmlns:dc="http://purl.org/dc/elements/1.1/" xmlns:cc="http://creativecommons.org/ns#" xmlns:rdf="http://www.w3.org/1999/02/22-rdf-syntax-ns#" xmlns:svg="http://www.w3.org/2000/svg" xmlns="http://www.w3.org/2000/svg" xmlns:sodipodi="http://sodipodi.sourceforge.net/DTD/sodipodi-0.dtd" xmlns:inkscape="http://www.inkscape.org/namespaces/inkscape" version="1.1" x="0px" y="0px" viewBox="0 0 100 125"><g transform="translate(0,-952.36218)"><path style="text-indent:0;text-transform:none;direction:ltr;block-progression:tb;baseline-shift:baseline;color:#000000;enable-background:accumulate;" d="M 46 4 C 43.529535 4 41.168286 4.80305 39.5 6.46875 C 38.534347 7.43291 37.936704 8.67939 37.53125 10 L 34 10 C 31.835892 10 30 11.83589 30 14 L 30 16 L 26 16 C 21.065891 16 17 20.06589 17 25 L 17 87 C 17 91.9341 21.065897 96 26 96 L 74 96 C 78.934103 96 83 91.9341 83 87 L 83 25 C 83 20.06589 78.934109 16 74 16 L 70 16 L 70 14 C 70 11.83589 68.164108 10 66 10 L 62.46875 10 C 62.062221 8.68339 61.463638 7.46514 60.5 6.5 C 58.837136 4.83455 56.470465 4 54 4 L 46 4 z M 46 10 L 54 10 C 55.210025 10 55.836212 10.30432 56.25 10.71875 C 56.663788 11.13318 56.995739 11.78425 57 13 A 3.0003 3.0003 0 0 0 60 16 L 64 16 L 64 22 L 36 22 L 36 16 L 40 16 A 3.0003 3.0003 0 0 0 43 12.96875 C 42.9958 11.76444 43.335179 11.13293 43.75 10.71875 C 44.164821 10.30457 44.789975 10 46 10 z M 26 22 L 30 22 L 30 24 C 30 26.16411 31.835892 28 34 28 L 66 28 C 68.164108 28 70 26.16411 70 24 L 70 22 L 74 22 C 75.713871 22 77 23.28613 77 25 L 77 87 C 77 88.7139 75.713877 90 74 90 L 26 90 C 24.286123 90 23 88.7139 23 87 L 23 25 C 23 23.28613 24.286129 22 26 22 z " transform="translate(0,952.36218)" fill="#000000" fill-opacity="1" stroke="none" marker="none" visibility="visible" display="inline" overflow="visible"/></g></svg>